STARTFONT 2.1
FONT -FontForge-Fontdiner Swanky-Book-R-Normal--20-200-72-72-P-126-ISO10646-1
SIZE 20 72 72
FONTBOUNDINGBOX 29 31 -5 -10
COMMENT "Generated by fontforge, http://fontforge.sourceforge.net"
COMMENT "Copyright (c) 2010 by Font Diner, Inc. All rights reserved."
STARTPROPERTIES 39
FOUNDRY "FontForge"
FAMILY_NAME "Fontdiner Swanky"
WEIGHT_NAME "Book"
SLANT "R"
SETWIDTH_NAME "Normal"
ADD_STYLE_NAME ""
PIXEL_SIZE 20
POINT_SIZE 200
RESOLUTION_X 72
RESOLUTION_Y 72
SPACING "P"
AVERAGE_WIDTH 126
CHARSET_REGISTRY "ISO10646"
CHARSET_ENCODING "1"
FONTNAME_REGISTRY ""
CHARSET_COLLECTIONS "ISO10646-1"
FONT_NAME "FontdinerSwanky-Regular"
FACE_NAME "Fontdiner Swanky Regular"
COPYRIGHT "Copyright (c) 2010 by Font Diner, Inc. All rights reserved."
FONT_VERSION "1.001"
FONT_ASCENT 16
FONT_DESCENT 4
UNDERLINE_POSITION -2
UNDERLINE_THICKNESS 1
X_HEIGHT 10
CAP_HEIGHT 11
RAW_ASCENT 799
RAW_DESCENT 200
NORM_SPACE 6
RELATIVE_WEIGHT 40
RELATIVE_SETWIDTH 50
SUPERSCRIPT_X 0
SUPERSCRIPT_Y 9
SUPERSCRIPT_SIZE 12
SUBSCRIPT_X 0
SUBSCRIPT_Y 2
SUBSCRIPT_SIZE 12
AVG_LOWERCASE_WIDTH 125
AVG_UPPERCASE_WIDTH 155
ENDPROPERTIES
CHARS 231
STARTCHAR space
ENCODING 32
SWIDTH 320 0
DWIDTH 6 0
BBX 1 1 0 0
BITMAP
00
ENDCHAR
STARTCHAR exclam
ENCODING 33
SWIDTH 305 0
DWIDTH 6 0
BBX 6 17 0 0
BITMAP
3C
3C
3C
3C
38
38
38
38
38
30
30
70
70
00
60
F0
70
ENDCHAR
STARTCHAR quotedbl
ENCODING 34
SWIDTH 369 0
DWIDTH 7 0
BBX 7 5 0 8
BITMAP
EE
EE
EE
6E
6E
ENDCHAR
STARTCHAR numbersign
ENCODING 35
SWIDTH 702 0
DWIDTH 14 0
BBX 14 14 0 0
BITMAP
1C60
1C60
1C60
7FFC
7FFC
9C60
18E0
18E0
7FF8
FFF8
FFF8
18C0
18C0
2000
ENDCHAR
STARTCHAR dollar
ENCODING 36
SWIDTH 545 0
DWIDTH 11 0
BBX 11 17 0 -2
BITMAP
0C00
0C00
0C20
3E40
7FC0
E1C0
E0C0
FC40
7F40
3FC0
47C0
41E0
60E0
FFC0
9F00
8E00
0E00
ENDCHAR
STARTCHAR percent
ENCODING 37
SWIDTH 657 0
DWIDTH 13 0
BBX 14 17 0 -1
BITMAP
0040
30F0
7CE0
CCE0
CDC0
7DC0
3B80
0380
0300
0700
0600
0EF8
0ED8
0CDC
1CD8
18F8
1800
ENDCHAR
STARTCHAR ampersand
ENCODING 38
SWIDTH 668 0
DWIDTH 13 0
BBX 15 18 1 -3
BITMAP
1E00
7700
6380
6380
7300
7F00
3C80
3C40
7E60
EF60
E7F0
E3CA
F1FC
FFF0
7CE0
0180
0100
0200
ENDCHAR
STARTCHAR quotesingle
ENCODING 39
SWIDTH 177 0
DWIDTH 4 0
BBX 3 5 0 8
BITMAP
E0
E0
E0
60
60
ENDCHAR
STARTCHAR parenleft
ENCODING 40
SWIDTH 384 0
DWIDTH 8 0
BBX 7 20 1 -3
BITMAP
02
0C
38
30
70
60
E0
E0
E0
E0
E0
E0
E0
E0
70
70
38
18
0C
02
ENDCHAR
STARTCHAR parenright
ENCODING 41
SWIDTH 375 0
DWIDTH 8 0
BBX 7 20 0 -3
BITMAP
80
60
30
38
1C
1C
0C
0E
0E
0E
0E
0E
1E
1C
1C
1C
38
30
60
80
ENDCHAR
STARTCHAR asterisk
ENCODING 42
SWIDTH 640 0
DWIDTH 13 0
BBX 13 13 0 0
BITMAP
0900
39C0
39E0
1DC0
8F80
FFF8
FFF8
FFF8
0F80
1FC0
39E0
3980
0800
ENDCHAR
STARTCHAR plus
ENCODING 43
SWIDTH 607 0
DWIDTH 12 0
BBX 12 11 0 1
BITMAP
0F00
0F00
0700
8700
FFF0
FFF0
FFC0
0600
0600
0600
0600
ENDCHAR
STARTCHAR comma
ENCODING 44
SWIDTH 226 0
DWIDTH 5 0
BBX 4 5 0 -4
BITMAP
F0
F0
70
30
60
ENDCHAR
STARTCHAR hyphen
ENCODING 45
SWIDTH 549 0
DWIDTH 11 0
BBX 9 4 1 5
BITMAP
F000
FF80
FF80
FF00
ENDCHAR
STARTCHAR period
ENCODING 46
SWIDTH 226 0
DWIDTH 5 0
BBX 4 4 0 -2
BITMAP
60
F0
F0
60
ENDCHAR
STARTCHAR slash
ENCODING 47
SWIDTH 600 0
DWIDTH 12 0
BBX 14 20 -1 -2
BITMAP
0020
0030
007C
0078
00F0
00F0
01E0
01C0
03C0
0780
0780
0F00
0E00
1E00
3C00
3800
7800
F000
7000
2000
ENDCHAR
STARTCHAR zero
ENCODING 48
SWIDTH 740 0
DWIDTH 15 0
BBX 14 13 0 0
BITMAP
0380
1FF0
3C78
783C
701C
F01C
F01C
F01C
701C
783C
3878
1FF0
07C0
ENDCHAR
STARTCHAR one
ENCODING 49
SWIDTH 503 0
DWIDTH 10 0
BBX 12 16 -1 -1
BITMAP
0080
0F00
FF00
0700
0700
0700
0700
0700
0700
0700
0700
0700
0700
0700
1FC0
7FF0
ENDCHAR
STARTCHAR two
ENCODING 50
SWIDTH 638 0
DWIDTH 13 0
BBX 12 17 0 -1
BITMAP
8000
4000
4FC0
7FE0
7870
7070
6070
2070
40E0
43D0
0F90
1C10
3830
7030
FFF0
FFF0
00F0
ENDCHAR
STARTCHAR three
ENCODING 51
SWIDTH 620 0
DWIDTH 12 0
BBX 12 18 0 -2
BITMAP
8000
8000
8F80
7FC0
71E0
60F0
4070
40E0
0BE0
0FE0
43F0
40F0
40F0
60F0
71E0
FFC0
8F00
8000
ENDCHAR
STARTCHAR four
ENCODING 52
SWIDTH 606 0
DWIDTH 12 0
BBX 13 16 -1 -1
BITMAP
0040
0040
00C0
01C0
03C0
07C0
0FC0
0DC8
19C8
31D8
7FF8
FFF8
01D0
01C8
01C8
1FF8
ENDCHAR
STARTCHAR five
ENCODING 53
SWIDTH 610 0
DWIDTH 12 0
BBX 12 16 0 -1
BITMAP
0060
1FE0
FFE0
F020
E020
6020
7FA0
7FE0
41E0
00F0
40F0
40E0
61E0
7FE0
DFC0
8700
ENDCHAR
STARTCHAR six
ENCODING 54
SWIDTH 619 0
DWIDTH 12 0
BBX 12 18 0 -1
BITMAP
0020
0020
0020
0F60
1FE0
3FE0
7860
7020
7FD0
FFE0
F0F0
F070
E070
E070
F070
7070
79E0
1FC0
ENDCHAR
STARTCHAR seven
ENCODING 55
SWIDTH 598 0
DWIDTH 12 0
BBX 13 15 0 -1
BITMAP
FFF8
7FF8
60F0
60F0
20E0
21E0
21E0
01C0
01C0
0380
0380
0380
0300
0F80
7FF0
ENDCHAR
STARTCHAR eight
ENCODING 56
SWIDTH 642 0
DWIDTH 13 0
BBX 13 16 0 -2
BITMAP
0F80
3FE0
78F0
7070
7070
7070
78E0
3FE0
7FF0
F0F8
F078
F078
F078
78F0
3FE0
0F80
ENDCHAR
STARTCHAR nine
ENCODING 57
SWIDTH 610 0
DWIDTH 12 0
BBX 12 17 0 -3
BITMAP
1F80
7DC0
70E0
F070
E070
E070
F0F0
79F0
7FF0
5F70
40E0
60E0
7FC0
3F80
2700
2000
4000
ENDCHAR
STARTCHAR colon
ENCODING 58
SWIDTH 223 0
DWIDTH 4 0
BBX 4 9 0 -2
BITMAP
60
F0
F0
60
00
60
F0
F0
60
ENDCHAR
STARTCHAR semicolon
ENCODING 59
SWIDTH 228 0
DWIDTH 5 0
BBX 4 11 0 -4
BITMAP
60
F0
F0
60
00
00
F0
F0
70
20
40
ENDCHAR
STARTCHAR less
ENCODING 60
SWIDTH 563 0
DWIDTH 11 0
BBX 12 13 0 0
BITMAP
0020
00E0
03F0
07F0
1FC0
7F00
FC00
3C00
0E00
0780
01C0
00E0
0020
ENDCHAR
STARTCHAR equal
ENCODING 61
SWIDTH 531 0
DWIDTH 11 0
BBX 10 7 0 2
BITMAP
FFC0
FFC0
FFC0
0000
FFC0
FFC0
FFC0
ENDCHAR
STARTCHAR greater
ENCODING 62
SWIDTH 576 0
DWIDTH 12 0
BBX 12 13 0 0
BITMAP
4000
F000
F800
FE00
3F80
0FE0
03F0
03C0
0700
1E00
3800
7000
4000
ENDCHAR
STARTCHAR question
ENCODING 63
SWIDTH 592 0
DWIDTH 12 0
BBX 12 19 0 -1
BITMAP
4000
4000
7F00
7FC0
41E0
80E0
8070
0070
00F0
11E0
1FC0
1F00
3800
3800
0800
7000
F800
7800
3000
ENDCHAR
STARTCHAR at
ENCODING 64
SWIDTH 792 0
DWIDTH 16 0
BBX 16 14 0 -1
BITMAP
0FF8
1C1C
31CE
77E7
E637
E633
E033
E7F3
EE73
EE73
77F6
387E
1C18
07E0
ENDCHAR
STARTCHAR A
ENCODING 65
SWIDTH 788 0
DWIDTH 16 0
BBX 23 18 -3 -5
BITMAP
0FF000
00F800
007800
007C00
00FC00
00DE00
019E00
018F00
03FF00
03FF80
060780
0603C0
1E03C0
FF01E0
00C1FE
0003F0
000700
000800
ENDCHAR
STARTCHAR B
ENCODING 66
SWIDTH 774 0
DWIDTH 15 0
BBX 17 15 -2 -2
BITMAP
FFFC00
1FFF00
0F0780
0F0380
0F0380
0F0780
0FFF00
0FFC00
071F00
070780
070780
070780
073F00
0FFC00
FF8000
ENDCHAR
STARTCHAR C
ENCODING 67
SWIDTH 766 0
DWIDTH 15 0
BBX 15 17 0 -2
BITMAP
0002
03C2
0FF6
3F3E
3C0C
7804
7004
F004
F000
F000
7004
7804
7804
3E0C
1FFA
07F2
0002
ENDCHAR
STARTCHAR D
ENCODING 68
SWIDTH 833 0
DWIDTH 17 0
BBX 19 14 -2 -1
BITMAP
FFFE00
0FFF80
0783C0
0781C0
0781C0
0381E0
0381E0
0381E0
0381C0
0381C0
0383C0
03FF80
0FFE00
380000
ENDCHAR
STARTCHAR E
ENCODING 69
SWIDTH 781 0
DWIDTH 16 0
BBX 17 14 -2 0
BITMAP
CFFF80
3FFB80
078180
078980
078880
079080
079080
07F080
07F100
079100
071100
070900
070300
7FFF00
ENDCHAR
STARTCHAR F
ENCODING 70
SWIDTH 731 0
DWIDTH 15 0
BBX 16 15 -2 -1
BITMAP
87FF
7FFB
0783
078B
0711
0711
0731
07F1
07F0
0730
0710
0710
0700
0780
7FF8
ENDCHAR
STARTCHAR G
ENCODING 71
SWIDTH 828 0
DWIDTH 17 0
BBX 18 16 0 -1
BITMAP
000200
03E600
1FFE00
3E3E00
7C0C00
780400
780400
F00200
F1FFC0
F03F00
780E00
780E00
7C1E00
3E3E00
1FF200
07C100
ENDCHAR
STARTCHAR H
ENCODING 72
SWIDTH 797 0
DWIDTH 16 0
BBX 20 16 -2 -2
BITMAP
00FFE0
C06F00
3F8F00
0E0F00
0E0700
0E0700
0E0700
0E0700
0FFF00
0F8700
0E0700
0E0700
0E0700
0E7FF0
1F0000
FFF000
ENDCHAR
STARTCHAR I
ENCODING 73
SWIDTH 445 0
DWIDTH 9 0
BBX 13 16 -2 -2
BITMAP
FFF8
1FC0
0780
0700
0700
0700
0700
0700
0700
0700
0700
0700
0700
0700
0F80
7FF8
ENDCHAR
STARTCHAR J
ENCODING 74
SWIDTH 718 0
DWIDTH 14 0
BBX 19 18 -2 -3
BITMAP
0000E0
003F00
0FFC00
003C00
001C00
001C00
001C00
001E00
001E00
001E00
000E00
FF8E00
3E1E00
1C1C00
0C1C00
0E3800
07F000
008000
ENDCHAR
STARTCHAR K
ENCODING 75
SWIDTH 934 0
DWIDTH 19 0
BBX 24 17 -1 -2
BITMAP
81F000
7F981C
0F07E0
0F0780
0F0E00
0F3C00
0FF000
0FF800
0F3800
0E1C00
0E0E00
0E0F00
0E0780
0F03C0
7FF3C0
800FF0
001FFF
ENDCHAR
STARTCHAR L
ENCODING 76
SWIDTH 712 0
DWIDTH 14 0
BBX 16 16 -2 0
BITMAP
FFF8
1FC0
0780
0780
0780
0780
0780
0781
0781
0781
0781
0383
0383
0383
0FFF
7F80
ENDCHAR
STARTCHAR M
ENCODING 77
SWIDTH 1033 0
DWIDTH 21 0
BBX 24 16 -2 -1
BITMAP
800041
7F80FE
0FC0F0
07C1F0
07E1F0
07E3F0
06F3F0
06F6F0
067EF0
067CF0
063CF0
0318F0
0318F0
0310F0
0FC7FF
7FF800
ENDCHAR
STARTCHAR N
ENCODING 78
SWIDTH 840 0
DWIDTH 17 0
BBX 21 16 -2 -1
BITMAP
806078
7F9FE0
0FC380
07E180
07E180
07F180
06F980
067D80
063F80
061F80
060F80
060780
060780
1FC300
FFF900
000080
ENDCHAR
STARTCHAR O
ENCODING 79
SWIDTH 808 0
DWIDTH 16 0
BBX 16 12 0 0
BITMAP
0FF0
3FFC
7C1E
781E
700F
F00F
F00F
700F
781E
3C1E
1FF8
0FF0
ENDCHAR
STARTCHAR P
ENCODING 80
SWIDTH 746 0
DWIDTH 15 0
BBX 17 14 -2 -1
BITMAP
FFE000
1FFE00
070F80
070380
070380
070F00
07FC00
07C000
070000
070000
078000
078000
1FE000
7FF800
ENDCHAR
STARTCHAR Q
ENCODING 81
SWIDTH 789 0
DWIDTH 16 0
BBX 17 19 1 -6
BITMAP
0FC000
3FF000
787800
F03C00
E03C00
E01C00
E01C00
E01C00
F03C00
703800
7CF800
1FE000
07C000
01E000
01E000
00FF80
01F800
038000
0C0000
ENDCHAR
STARTCHAR R
ENCODING 82
SWIDTH 826 0
DWIDTH 17 0
BBX 24 18 -2 -5
BITMAP
FFF000
0FFF00
070780
070180
070380
070F00
07FC00
079C00
078E00
078F00
078700
078780
1FE3C0
601BFF
0001F8
0003C0
000700
000800
ENDCHAR
STARTCHAR S
ENCODING 83
SWIDTH 661 0
DWIDTH 13 0
BBX 13 16 0 -2
BITMAP
0008
1F88
7FF8
F070
F010
F810
7F80
3FE0
0FF0
41F8
4078
6078
7870
5FE0
4300
4000
ENDCHAR
STARTCHAR T
ENCODING 84
SWIDTH 754 0
DWIDTH 15 0
BBX 13 13 1 0
BITMAP
FFF8
C718
C718
8718
8708
8708
8708
0700
0700
0700
0700
0F00
7FF0
ENDCHAR
STARTCHAR U
ENCODING 85
SWIDTH 725 0
DWIDTH 15 0
BBX 18 14 -2 -1
BITMAP
FC7FC0
1F8600
0E0600
0E0600
0E0600
0E0600
0E0600
0E0600
1E0600
0E0600
0F0600
079C00
03F800
00C000
ENDCHAR
STARTCHAR V
ENCODING 86
SWIDTH 786 0
DWIDTH 16 0
BBX 21 16 -3 -2
BITMAP
01F800
1F8780
FF01F8
078180
078180
03C300
03C300
01C600
01E400
00EC00
00F800
007800
007000
003000
002000
002000
ENDCHAR
STARTCHAR W
ENCODING 87
SWIDTH 1026 0
DWIDTH 21 0
BBX 27 15 -3 -2
BITMAP
CFF0F000
3F841FE0
07060C00
07860C00
078F0800
038F1800
03DF9800
01DBB000
01FBF000
01F9E000
00F1E000
00F0E000
0060C000
00604000
00404000
ENDCHAR
STARTCHAR X
ENCODING 88
SWIDTH 860 0
DWIDTH 17 0
BBX 21 13 -2 -1
BITMAP
7FF030
078FC0
03C700
01EE00
01F800
00F000
00F800
01FC00
039E00
071F00
1E0F00
FF8FC0
003FF8
ENDCHAR
STARTCHAR Y
ENCODING 89
SWIDTH 848 0
DWIDTH 17 0
BBX 21 14 -3 -1
BITMAP
FFE000
1F87F8
03C1E0
01C180
01E300
00F600
007C00
003800
003800
003800
003800
003C00
003C00
03FFE0
ENDCHAR
STARTCHAR Z
ENCODING 90
SWIDTH 685 0
DWIDTH 14 0
BBX 14 12 0 0
BITMAP
FFFC
7FF8
60F0
61E0
43E0
47C4
2784
0F08
1F08
3E18
7FF8
FFF8
ENDCHAR
STARTCHAR bracketleft
ENCODING 91
SWIDTH 380 0
DWIDTH 8 0
BBX 8 18 1 -2
BITMAP
FF
F0
E0
E0
E0
E0
E0
E0
E0
E0
E0
60
60
60
60
60
70
7E
ENDCHAR
STARTCHAR backslash
ENCODING 92
SWIDTH 680 0
DWIDTH 14 0
BBX 13 20 0 -2
BITMAP
1000
7000
F000
7800
3C00
3C00
1E00
1E00
0F00
0700
0780
03C0
01C0
01E0
00E0
00F0
0078
0038
0038
0020
ENDCHAR
STARTCHAR bracketright
ENCODING 93
SWIDTH 371 0
DWIDTH 7 0
BBX 8 18 -1 -2
BITMAP
FF
1F
0F
0F
0E
0E
0E
0E
0E
0E
06
06
06
06
06
06
0E
FE
ENDCHAR
STARTCHAR asciicircum
ENCODING 94
SWIDTH 671 0
DWIDTH 13 0
BBX 13 12 0 6
BITMAP
0200
0200
0700
0F80
0F80
1FC0
1EC0
3CE0
3C70
7830
F818
F010
ENDCHAR
STARTCHAR underscore
ENCODING 95
SWIDTH 840 0
DWIDTH 17 0
BBX 17 4 0 -2
BITMAP
000F80
FFFF80
FFFF80
FFFF80
ENDCHAR
STARTCHAR grave
ENCODING 96
SWIDTH 707 0
DWIDTH 14 0
BBX 4 5 6 12
BITMAP
20
E0
E0
70
70
ENDCHAR
STARTCHAR a
ENCODING 97
SWIDTH 572 0
DWIDTH 11 0
BBX 13 11 0 0
BITMAP
1F80
3BC0
71C0
70C0
20C0
3FC0
71C0
F1C0
F1C0
7FC0
01F8
ENDCHAR
STARTCHAR b
ENCODING 98
SWIDTH 723 0
DWIDTH 14 0
BBX 17 18 -3 -3
BITMAP
078000
FF8000
0F8000
078000
078000
078000
078000
078000
078000
07FE00
07FF80
070780
030380
030380
030780
030F00
0FFC00
3FC000
ENDCHAR
STARTCHAR c
ENCODING 99
SWIDTH 589 0
DWIDTH 12 0
BBX 11 11 1 -1
BITMAP
1F00
3FC0
71C0
E1C0
E1C0
E000
E020
E040
F0C0
7FC0
3F00
ENDCHAR
STARTCHAR d
ENCODING 100
SWIDTH 713 0
DWIDTH 14 0
BBX 15 19 1 -3
BITMAP
0780
00F8
0078
0078
0078
0078
0070
0070
1F70
7FF0
70F0
E070
E070
E070
E060
7060
3FE0
0FF0
007E
ENDCHAR
STARTCHAR e
ENCODING 101
SWIDTH 593 0
DWIDTH 12 0
BBX 11 10 1 -1
BITMAP
3F00
7F80
F1C0
E0C0
FFE0
FFE0
E000
E040
7F80
3F00
ENDCHAR
STARTCHAR f
ENCODING 102
SWIDTH 507 0
DWIDTH 10 0
BBX 12 27 -1 -8
BITMAP
03E0
0770
0E30
0E70
0E30
0E00
0E00
0E00
0E00
7FE0
7FE0
0E00
0F00
0700
0700
0700
0700
0700
0700
0700
0700
0300
E300
E700
E700
7E00
3C00
ENDCHAR
STARTCHAR g
ENCODING 103
SWIDTH 606 0
DWIDTH 12 0
BBX 13 23 0 -10
BITMAP
0020
00F8
00F8
1FB8
39C0
70E0
70E0
E070
6070
70E0
70E0
3FC0
3F00
7800
7FC0
3FF0
7070
E038
E038
E038
7070
7FE0
1F80
ENDCHAR
STARTCHAR h
ENCODING 104
SWIDTH 678 0
DWIDTH 14 0
BBX 18 18 -3 -1
BITMAP
0F8000
FF8000
078000
078000
078000
078000
070000
070000
070000
07FC00
07FE00
070700
070700
070700
070700
030700
1FC600
203FC0
ENDCHAR
STARTCHAR i
ENCODING 105
SWIDTH 393 0
DWIDTH 8 0
BBX 10 16 -1 0
BITMAP
0E00
0F00
1F00
0E00
0000
C000
3F00
0E00
0E00
0E00
0E00
0E00
0E00
0E00
1F00
7FC0
ENDCHAR
STARTCHAR j
ENCODING 106
SWIDTH 385 0
DWIDTH 8 0
BBX 8 22 -1 -7
BITMAP
18
3C
3C
1C
00
06
FE
0E
0E
0E
0E
0F
07
07
07
07
07
C7
E7
C7
FE
38
ENDCHAR
STARTCHAR k
ENCODING 107
SWIDTH 749 0
DWIDTH 15 0
BBX 20 18 -3 -2
BITMAP
FF8000
078000
078000
07BFF0
078F80
078E00
079C00
07B000
07F000
03F800
039C00
039C00
038E00
038600
078700
1FF3C0
2007F0
001C00
ENDCHAR
STARTCHAR l
ENCODING 108
SWIDTH 369 0
DWIDTH 7 0
BBX 10 19 -2 -2
BITMAP
FF00
0F00
0F00
0F00
0F00
0F00
0F00
0F00
0F00
0700
0600
0600
0600
0600
0600
0600
0700
1FC0
6000
ENDCHAR
STARTCHAR m
ENCODING 109
SWIDTH 990 0
DWIDTH 20 0
BBX 23 10 -2 1
BITMAP
073000
FFFBF0
0FFFF8
0F1E38
060C38
060C38
060C38
070C38
3F9CFE
00FF00
ENDCHAR
STARTCHAR n
ENCODING 110
SWIDTH 643 0
DWIDTH 13 0
BBX 16 10 -2 1
BITMAP
0730
FFFC
0FFC
0F1C
060C
060C
060C
070C
3F9C
00FF
ENDCHAR
STARTCHAR o
ENCODING 111
SWIDTH 705 0
DWIDTH 14 0
BBX 14 10 0 0
BITMAP
0300
3FF0
7878
703C
E01C
E01C
F03C
7038
3CF0
1FE0
ENDCHAR
STARTCHAR p
ENCODING 112
SWIDTH 723 0
DWIDTH 14 0
BBX 16 16 -2 -5
BITMAP
FF00
3F70
0FFC
0F0F
0F07
0F07
0F07
0707
070E
07FC
0730
0700
0700
0700
0F80
7FF0
ENDCHAR
STARTCHAR q
ENCODING 113
SWIDTH 682 0
DWIDTH 14 0
BBX 16 15 0 -4
BITMAP
007F
1FF0
7FF0
7070
E070
E070
E070
7070
7FF0
1FF0
0070
0070
0070
00F0
07FF
ENDCHAR
STARTCHAR r
ENCODING 114
SWIDTH 595 0
DWIDTH 12 0
BBX 14 12 -1 0
BITMAP
0630
FEF8
3FFC
0F38
0E00
0E00
0E00
0E00
0600
0700
1FE0
7F10
ENDCHAR
STARTCHAR s
ENCODING 115
SWIDTH 533 0
DWIDTH 11 0
BBX 11 13 0 -1
BITMAP
1C40
7F40
61C0
E0C0
F840
7F40
3FC0
4FC0
41E0
60E0
7FC0
9F80
8000
ENDCHAR
STARTCHAR t
ENCODING 116
SWIDTH 422 0
DWIDTH 8 0
BBX 9 19 0 -1
BITMAP
0C00
0C00
1800
1800
3800
FF80
FF80
3800
3800
3800
3800
3800
7000
7080
7080
7100
3F00
3E00
0C00
ENDCHAR
STARTCHAR u
ENCODING 117
SWIDTH 614 0
DWIDTH 12 0
BBX 16 11 -2 -1
BITMAP
FF9C
1C7C
1C1C
1C1C
1C18
1C18
1C18
1C38
0FF8
07DF
0018
ENDCHAR
STARTCHAR v
ENCODING 118
SWIDTH 639 0
DWIDTH 13 0
BBX 18 13 -3 -2
BITMAP
01C000
FF4000
0F3FC0
070E00
070C00
039800
039800
01F000
01F000
00E000
006000
004000
004000
ENDCHAR
STARTCHAR w
ENCODING 119
SWIDTH 805 0
DWIDTH 16 0
BBX 22 11 -3 0
BITMAP
FFF3FC
1E10E0
0F18C0
0738C0
07BD80
03BD80
03EF00
01CF00
01C600
008600
008400
ENDCHAR
STARTCHAR x
ENCODING 120
SWIDTH 717 0
DWIDTH 14 0
BBX 19 12 -2 -1
BITMAP
07E000
FE7FC0
0F1E00
079800
03F000
01E000
01F000
03F000
073800
7F9C00
005FE0
00F000
ENDCHAR
STARTCHAR y
ENCODING 121
SWIDTH 655 0
DWIDTH 13 0
BBX 14 20 -1 -9
BITMAP
8000
73E4
3E78
3C38
3C38
3C38
3838
3838
3E78
1FF8
0738
0038
0038
0038
1038
3838
3870
3070
1FE0
0F80
ENDCHAR
STARTCHAR z
ENCODING 122
SWIDTH 549 0
DWIDTH 11 0
BBX 12 10 0 0
BITMAP
FFF0
61C0
63C0
4780
4F20
4E20
1E40
3C60
7FE0
FFE0
ENDCHAR
STARTCHAR braceleft
ENCODING 123
SWIDTH 708 0
DWIDTH 14 0
BBX 12 18 1 -2
BITMAP
0FF0
0F00
0E00
0E00
0E00
0E00
0E00
0E00
1E00
FE00
0E00
0E00
0E00
0E00
0E00
0E00
0E00
0FE0
ENDCHAR
STARTCHAR bar
ENCODING 124
SWIDTH 304 0
DWIDTH 6 0
BBX 4 18 1 -1
BITMAP
F0
F0
F0
F0
F0
F0
F0
F0
70
70
70
70
70
70
60
60
60
60
ENDCHAR
STARTCHAR braceright
ENCODING 125
SWIDTH 517 0
DWIDTH 10 0
BBX 11 18 0 -2
BITMAP
FF00
1F00
0F00
0F00
0E00
0E00
0E00
0E00
0F80
07E0
0600
0600
0600
0600
0600
0600
0E00
FE00
ENDCHAR
STARTCHAR asciitilde
ENCODING 126
SWIDTH 466 0
DWIDTH 9 0
BBX 9 4 0 4
BITMAP
F880
FF80
FF80
8200
ENDCHAR
STARTCHAR uni00A0
ENCODING 160
SWIDTH 320 0
DWIDTH 6 0
BBX 1 1 0 0
BITMAP
00
ENDCHAR
STARTCHAR exclamdown
ENCODING 161
SWIDTH 305 0
DWIDTH 6 0
BBX 6 17 0 -6
BITMAP
18
3C
1C
00
38
38
38
38
38
38
78
78
78
78
70
F0
F0
ENDCHAR
STARTCHAR cent
ENCODING 162
SWIDTH 417 0
DWIDTH 8 0
BBX 9 16 0 -2
BITMAP
1C00
1C00
1C00
3E00
6300
E300
C300
C000
C000
E080
E100
7E00
1C00
1C00
1C00
1C00
ENDCHAR
STARTCHAR sterling
ENCODING 163
SWIDTH 658 0
DWIDTH 13 0
BBX 13 15 0 -1
BITMAP
0008
0FC8
1FF8
3C78
3830
F850
FF90
FF90
0C48
FF88
FF88
1C08
1FF8
3FF8
4FF8
ENDCHAR
STARTCHAR currency
ENCODING 164
SWIDTH 358 0
DWIDTH 7 0
BBX 7 7 0 4
BITMAP
44
FE
7E
64
6C
7E
C6
ENDCHAR
STARTCHAR yen
ENCODING 165
SWIDTH 796 0
DWIDTH 16 0
BBX 20 13 -3 0
BITMAP
FFC000
1F1FF0
070300
038600
01CC00
00F800
007000
03FC00
007000
03FC00
007000
00F800
07FF80
ENDCHAR
STARTCHAR brokenbar
ENCODING 166
SWIDTH 304 0
DWIDTH 6 0
BBX 4 18 1 -1
BITMAP
F0
F0
F0
F0
F0
F0
F0
00
00
00
00
70
70
70
60
60
60
60
ENDCHAR
STARTCHAR section
ENCODING 167
SWIDTH 646 0
DWIDTH 13 0
BBX 11 24 1 -6
BITMAP
0820
3F20
63C0
E0C0
E040
F040
FC20
7F00
3FC0
7FE0
E3E0
E0E0
F0E0
FDE0
7FC0
3FC0
0FE0
83E0
C0E0
E0E0
F1E0
BFC0
8000
8000
ENDCHAR
STARTCHAR dieresis
ENCODING 168
SWIDTH 708 0
DWIDTH 14 0
BBX 6 3 4 16
BITMAP
CC
EC
48
ENDCHAR
STARTCHAR copyright
ENCODING 169
SWIDTH 700 0
DWIDTH 14 0
BBX 14 13 0 1
BITMAP
0100
1FE0
3870
6398
E4DC
CCCC
C80C
CC4C
CC4C
6798
7038
3DF0
0FC0
ENDCHAR
STARTCHAR ordfeminine
ENCODING 170
SWIDTH 399 0
DWIDTH 8 0
BBX 9 8 0 8
BITMAP
3800
FE00
E600
4600
FE00
CE00
FE00
3F80
ENDCHAR
STARTCHAR guillemotleft
ENCODING 171
SWIDTH 424 0
DWIDTH 9 0
BBX 8 11 0 -1
BITMAP
11
11
33
76
6E
EE
66
37
33
11
11
ENDCHAR
STARTCHAR logicalnot
ENCODING 172
SWIDTH 541 0
DWIDTH 11 0
BBX 12 11 0 1
BITMAP
8000
8020
8020
F840
FFC0
FFC0
80C0
80C0
8040
00C0
01F0
ENDCHAR
STARTCHAR sfthyphen
ENCODING 173
SWIDTH 530 0
DWIDTH 11 0
BBX 11 4 0 5
BITMAP
F000
FFE0
FFE0
FFC0
ENDCHAR
STARTCHAR registered
ENCODING 174
SWIDTH 700 0
DWIDTH 14 0
BBX 14 12 0 1
BITMAP
1FE0
3C70
7018
FEFC
C7EC
C20C
C20C
C20C
67D8
6838
38F0
1FC0
ENDCHAR
STARTCHAR macron
ENCODING 175
SWIDTH 705 0
DWIDTH 14 0
BBX 6 3 5 14
BITMAP
FC
FC
FC
ENDCHAR
STARTCHAR degree
ENCODING 176
SWIDTH 364 0
DWIDTH 7 0
BBX 5 5 1 9
BITMAP
78
D8
C8
F8
70
ENDCHAR
STARTCHAR plusminus
ENCODING 177
SWIDTH 607 0
DWIDTH 12 0
BBX 12 13 0 0
BITMAP
0F00
0F00
0700
7FF0
FFF0
FFF0
0600
0600
0600
0000
7FF0
7FF0
7FE0
ENDCHAR
STARTCHAR twosuperior
ENCODING 178
SWIDTH 440 0
DWIDTH 9 0
BBX 9 11 0 7
BITMAP
4C00
7F00
7300
6380
4300
4F80
5C80
7100
FF00
FF00
0F00
ENDCHAR
STARTCHAR threesuperior
ENCODING 179
SWIDTH 442 0
DWIDTH 9 0
BBX 9 12 0 6
BITMAP
8000
5E00
7F00
6300
4300
5F00
5F00
4380
6380
7F00
7E00
8000
ENDCHAR
STARTCHAR acute
ENCODING 180
SWIDTH 694 0
DWIDTH 14 0
BBX 4 5 6 15
BITMAP
40
70
E0
E0
C0
ENDCHAR
STARTCHAR mu
ENCODING 181
SWIDTH 1000 0
DWIDTH 20 0
BBX 16 15 0 -5
BITMAP
FD9C
3C7C
1C1C
1C18
1C18
1C38
1C38
1C38
1FF8
1FFF
1C38
1C00
1C00
1C00
1C00
ENDCHAR
STARTCHAR paragraph
ENCODING 182
SWIDTH 782 0
DWIDTH 16 0
BBX 17 14 0 -1
BITMAP
1FFF80
7FF800
E33000
C33000
E33000
7F3000
1FF000
033000
033000
033000
033000
03F800
07FE00
7E0100
ENDCHAR
STARTCHAR periodcentered
ENCODING 183
SWIDTH 226 0
DWIDTH 5 0
BBX 4 3 0 6
BITMAP
70
F0
70
ENDCHAR
STARTCHAR cedilla
ENCODING 184
SWIDTH 780 0
DWIDTH 16 0
BBX 5 7 5 -4
BITMAP
30
20
70
98
58
F8
30
ENDCHAR
STARTCHAR onesuperior
ENCODING 185
SWIDTH 390 0
DWIDTH 8 0
BBX 8 10 0 7
BITMAP
3C
FC
1C
1C
1C
1C
1C
1C
1C
7F
ENDCHAR
STARTCHAR ordmasculine
ENCODING 186
SWIDTH 449 0
DWIDTH 9 0
BBX 9 7 0 8
BITMAP
7F00
E380
C180
C180
E380
7F00
1800
ENDCHAR
STARTCHAR guillemotright
ENCODING 187
SWIDTH 415 0
DWIDTH 8 0
BBX 8 11 0 -1
BITMAP
88
CC
6E
66
37
33
77
66
CC
C8
88
ENDCHAR
STARTCHAR onequarter
ENCODING 188
SWIDTH 918 0
DWIDTH 18 0
BBX 18 21 0 -3
BITMAP
000200
3C0380
FC0700
1C0700
1C0E00
1C1C00
1C1C00
1C3800
1C3100
1C7100
7FE300
00E700
01CF40
019F40
039BC0
033FC0
067F80
0E0340
0C0740
1C3FC0
080000
ENDCHAR
STARTCHAR onehalf
ENCODING 189
SWIDTH 1007 0
DWIDTH 20 0
BBX 20 21 0 -3
BITMAP
000200
3C0380
FC0700
1C0700
1C0E00
1C1C00
1C1C00
1C3800
1C3000
1C7000
7FE800
00EFE0
01CE70
018C70
038470
0308F0
060BD0
0E0730
0C0E30
1C0FF0
081FE0
ENDCHAR
STARTCHAR threequarters
ENCODING 190
SWIDTH 936 0
DWIDTH 19 0
BBX 19 21 0 -3
BITMAP
800200
5E0380
7F0380
630700
430E00
5F0E00
5F1C00
439800
63B880
7F7100
7E7300
80E700
00C740
01CF40
019B40
033FC0
077FC0
060340
0E07C0
1C3FE0
040000
ENDCHAR
STARTCHAR questiondown
ENCODING 191
SWIDTH 568 0
DWIDTH 11 0
BBX 12 19 0 -7
BITMAP
0080
01E0
01E0
00C0
0200
0180
0380
0780
3F80
7880
F000
E000
E010
E020
7020
3FE0
0FE0
0040
0020
ENDCHAR
STARTCHAR Agrave
ENCODING 192
SWIDTH 788 0
DWIDTH 16 0
BBX 23 25 -3 -5
BITMAP
002000
00E000
006000
007000
003000
000000
0C0000
03F000
00F800
007800
007C00
00FC00
00DE00
019E00
018F00
03FF00
03FF80
060780
0603C0
1E03C0
FF01E0
00C1FE
0003F0
000700
000800
ENDCHAR
STARTCHAR Aacute
ENCODING 193
SWIDTH 788 0
DWIDTH 16 0
BBX 23 25 -3 -5
BITMAP
002000
003800
003800
003000
007000
000000
0C0000
03F000
00F800
007800
007C00
00FC00
00DE00
019E00
018F00
03FF00
03FF80
060780
0603C0
1E03C0
FF01E0
00C1FE
0003F0
000700
000800
ENDCHAR
STARTCHAR Acircumflex
ENCODING 194
SWIDTH 788 0
DWIDTH 16 0
BBX 23 24 -3 -5
BITMAP
003000
007800
00FC00
01CC00
000000
0C0000
03F000
00F800
007800
007C00
00FC00
00DE00
019E00
018F00
03FF00
03FF80
060780
0603C0
1E03C0
FF01E0
00C1FE
0003F0
000700
000800
ENDCHAR
STARTCHAR Atilde
ENCODING 195
SWIDTH 788 0
DWIDTH 16 0
BBX 23 24 -3 -5
BITMAP
000400
00FC00
00FC00
008800
000000
0C0000
03F000
00F800
007800
007C00
00FC00
00DE00
019E00
018F00
03FF00
03FF80
060780
0603C0
1E03C0
FF01E0
00C1FE
0003F0
000700
000800
ENDCHAR
STARTCHAR Adieresis
ENCODING 196
SWIDTH 788 0
DWIDTH 16 0
BBX 23 22 -3 -5
BITMAP
00CC00
00DC00
004800
0C0000
03F000
00F800
007800
007C00
00FC00
00DE00
019E00
018F00
03FF00
03FF80
060780
0603C0
1E03C0
FF01E0
00C1FE
0003F0
000700
000800
ENDCHAR
STARTCHAR Aring
ENCODING 197
SWIDTH 788 0
DWIDTH 16 0
BBX 23 22 -3 -5
BITMAP
003000
007800
004800
0C7800
03F000
00F800
007800
007C00
00FC00
00DE00
019E00
018F00
03FF00
03FF80
060780
0603C0
1E03C0
FF01E0
00C1FE
0003F0
000700
000800
ENDCHAR
STARTCHAR AE
ENCODING 198
SWIDTH 1019 0
DWIDTH 20 0
BBX 25 15 -5 -1
BITMAP
03FFFF80
00FFFB80
003F8100
003F8900
00378900
00679880
00679880
00C7F900
0183F100
01FF9100
03FF9100
03038900
06038300
1E1FFF00
FFE00000
ENDCHAR
STARTCHAR Ccedilla
ENCODING 199
SWIDTH 766 0
DWIDTH 15 0
BBX 15 22 0 -7
BITMAP
0002
03C2
0FF6
3F3E
3C0C
7804
7004
F004
F000
F000
7004
7804
7804
3E0C
1FFA
07F2
0302
0380
07C0
00C0
07C0
0380
ENDCHAR
STARTCHAR Egrave
ENCODING 200
SWIDTH 781 0
DWIDTH 16 0
BBX 17 21 -2 0
BITMAP
004000
01C000
00E000
006000
007000
000000
000000
CFFF80
3FFB80
078180
078980
078880
079080
079080
07F080
07F100
079100
071100
070900
070300
7FFF00
ENDCHAR
STARTCHAR Eacute
ENCODING 201
SWIDTH 781 0
DWIDTH 16 0
BBX 17 20 -2 0
BITMAP
002000
003800
007000
007000
006000
000000
CFFF80
3FFB80
078180
078980
078880
079080
079080
07F080
07F100
079100
071100
070900
070300
7FFF00
ENDCHAR
STARTCHAR Ecircumflex
ENCODING 202
SWIDTH 781 0
DWIDTH 16 0
BBX 17 20 -2 0
BITMAP
006000
00E000
01F000
031800
000000
000000
CFFF80
3FFB80
078180
078980
078880
079080
079080
07F080
07F100
079100
071100
070900
070300
7FFF00
ENDCHAR
STARTCHAR Edieresis
ENCODING 203
SWIDTH 781 0
DWIDTH 16 0
BBX 17 18 -2 0
BITMAP
019800
01B800
009000
000000
CFFF80
3FFB80
078180
078980
078880
079080
079080
07F080
07F100
079100
071100
070900
070300
7FFF00
ENDCHAR
STARTCHAR Igrave
ENCODING 204
SWIDTH 445 0
DWIDTH 9 0
BBX 13 23 -2 -2
BITMAP
0200
0E00
0600
0700
0300
0000
0000
FFF8
1FC0
0780
0700
0700
0700
0700
0700
0700
0700
0700
0700
0700
0700
0F80
7FF8
ENDCHAR
STARTCHAR Iacute
ENCODING 205
SWIDTH 445 0
DWIDTH 9 0
BBX 13 22 -2 -2
BITMAP
0200
0180
0380
0300
0300
0000
FFF8
1FC0
0780
0700
0700
0700
0700
0700
0700
0700
0700
0700
0700
0700
0F80
7FF8
ENDCHAR
STARTCHAR Icircumflex
ENCODING 206
SWIDTH 445 0
DWIDTH 9 0
BBX 13 22 -2 -2
BITMAP
0300
0780
0F80
18C0
0000
0000
FFF8
1FC0
0780
0700
0700
0700
0700
0700
0700
0700
0700
0700
0700
0700
0F80
7FF8
ENDCHAR
STARTCHAR Idieresis
ENCODING 207
SWIDTH 445 0
DWIDTH 9 0
BBX 13 20 -2 -2
BITMAP
0C80
0DC0
0880
0000
FFF8
1FC0
0780
0700
0700
0700
0700
0700
0700
0700
0700
0700
0700
0700
0F80
7FF8
ENDCHAR
STARTCHAR Eth
ENCODING 208
SWIDTH 1000 0
DWIDTH 20 0
BBX 19 14 0 -1
BITMAP
FFFE00
07FF80
03C3C0
03C1E0
0381E0
3B80E0
3FF8E0
3FF8E0
0380E0
0381E0
0383C0
03FF80
0FFE00
380000
ENDCHAR
STARTCHAR Ntilde
ENCODING 209
SWIDTH 840 0
DWIDTH 17 0
BBX 21 21 -2 -1
BITMAP
000400
01FC00
01FC00
011800
000000
806078
7F9FE0
0FC380
07E180
07E180
07F180
06F980
067D80
063F80
061F80
060F80
060780
060780
1FC300
FFF900
000080
ENDCHAR
STARTCHAR Ograve
ENCODING 210
SWIDTH 808 0
DWIDTH 16 0
BBX 16 19 0 0
BITMAP
0080
0380
01C0
01C0
00C0
0000
0000
0FF0
3FFC
7C1E
781E
700F
F00F
F00F
700F
781E
3C1E
1FF8
0FF0
ENDCHAR
STARTCHAR Oacute
ENCODING 211
SWIDTH 808 0
DWIDTH 16 0
BBX 16 19 0 0
BITMAP
0080
00E0
00C0
01C0
0180
0000
0000
0FF0
3FFC
7C1E
781E
700F
F00F
F00F
700F
781E
3C1E
1FF8
0FF0
ENDCHAR
STARTCHAR Ocircumflex
ENCODING 212
SWIDTH 808 0
DWIDTH 16 0
BBX 16 18 0 0
BITMAP
0180
03C0
03E0
0670
0000
0000
0FF0
3FFC
7C1E
781E
700F
F00F
F00F
700F
781E
3C1E
1FF8
0FF0
ENDCHAR
STARTCHAR Otilde
ENCODING 213
SWIDTH 808 0
DWIDTH 16 0
BBX 16 18 0 0
BITMAP
0010
07F0
07F0
0460
0000
0000
0FF0
3FFC
7C1E
781E
700F
F00F
F00F
700F
781E
3C1E
1FF8
0FF0
ENDCHAR
STARTCHAR Odieresis
ENCODING 214
SWIDTH 808 0
DWIDTH 16 0
BBX 16 16 0 0
BITMAP
0660
0760
0240
0000
0FF0
3FFC
7C1E
781E
700F
F00F
F00F
700F
781E
3C1E
1FF8
0FF0
ENDCHAR
STARTCHAR multiply
ENCODING 215
SWIDTH 556 0
DWIDTH 11 0
BBX 11 11 0 1
BITMAP
2080
71C0
FBE0
3FC0
1F80
1F00
3F80
7BC0
F1E0
60C0
2000
ENDCHAR
STARTCHAR Oslash
ENCODING 216
SWIDTH 808 0
DWIDTH 16 0
BBX 16 17 0 -2
BITMAP
0010
0018
003C
0FF8
3FFC
7C7E
78FE
70EF
F1CF
F38F
738F
7F1E
3E1E
1FF8
0FF0
1C00
1800
ENDCHAR
STARTCHAR Ugrave
ENCODING 217
SWIDTH 725 0
DWIDTH 15 0
BBX 18 21 -2 -1
BITMAP
004000
01C000
00E000
00E000
006000
000000
002000
FC5FC0
1F8600
0E0600
0E0600
0E0600
0E0600
0E0600
0E0600
1E0600
0E0600
0F0600
079C00
03F800
00C000
ENDCHAR
STARTCHAR Uacute
ENCODING 218
SWIDTH 725 0
DWIDTH 15 0
BBX 18 21 -2 -1
BITMAP
004000
007000
006000
00E000
00C000
000000
002000
FC5FC0
1F8600
0E0600
0E0600
0E0600
0E0600
0E0600
0E0600
1E0600
0E0600
0F0600
079C00
03F800
00C000
ENDCHAR
STARTCHAR Ucircumflex
ENCODING 219
SWIDTH 725 0
DWIDTH 15 0
BBX 18 20 -2 -1
BITMAP
006000
00E000
01F000
031800
000000
002000
FC5FC0
1F8600
0E0600
0E0600
0E0600
0E0600
0E0600
0E0600
1E0600
0E0600
0F0600
079C00
03F800
00C000
ENDCHAR
STARTCHAR Udieresis
ENCODING 220
SWIDTH 725 0
DWIDTH 15 0
BBX 18 18 -2 -1
BITMAP
019800
01B800
009000
002000
FC5FC0
1F8600
0E0600
0E0600
0E0600
0E0600
0E0600
0E0600
1E0600
0E0600
0F0600
079C00
03F800
00C000
ENDCHAR
STARTCHAR Yacute
ENCODING 221
SWIDTH 848 0
DWIDTH 17 0
BBX 21 20 -3 -1
BITMAP
000800
000E00
000E00
000C00
001C00
000000
FFE000
1F87F8
03C1E0
01C180
01E300
00F600
007C00
003800
003800
003800
003800
003C00
003C00
03FFE0
ENDCHAR
STARTCHAR Thorn
ENCODING 222
SWIDTH 745 0
DWIDTH 15 0
BBX 17 14 -2 -1
BITMAP
FFF000
1FC000
070000
07FC00
07FF00
070380
070380
070380
07FE00
07F800
070000
070000
1FE000
7FF800
ENDCHAR
STARTCHAR germandbls
ENCODING 223
SWIDTH 986 0
DWIDTH 20 0
BBX 21 27 -1 -8
BITMAP
004000
03F800
079C00
070E00
0E0600
0E0600
0E0700
0E0600
0E0E00
7E0E00
7E1C00
0E1800
0F3800
073C00
071E00
071FC0
070FF0
0713F8
071078
071838
071FF0
0317E0
E32000
E70000
E70000
7E0000
3C0000
ENDCHAR
STARTCHAR agrave
ENCODING 224
SWIDTH 572 0
DWIDTH 11 0
BBX 13 18 0 0
BITMAP
0100
0700
0380
0380
0180
0000
0000
1F80
3BC0
71C0
70C0
20C0
3FC0
71C0
F1C0
F1C0
7FC0
01F8
ENDCHAR
STARTCHAR aacute
ENCODING 225
SWIDTH 572 0
DWIDTH 11 0
BBX 13 18 0 0
BITMAP
0200
0380
0380
0300
0700
0000
0000
1F80
3BC0
71C0
70C0
20C0
3FC0
71C0
F1C0
F1C0
7FC0
01F8
ENDCHAR
STARTCHAR acircumflex
ENCODING 226
SWIDTH 572 0
DWIDTH 11 0
BBX 13 17 0 0
BITMAP
0300
0700
0F80
18C0
0000
0000
1F80
3BC0
71C0
70C0
20C0
3FC0
71C0
F1C0
F1C0
7FC0
01F8
ENDCHAR
STARTCHAR atilde
ENCODING 227
SWIDTH 572 0
DWIDTH 11 0
BBX 13 16 0 0
BITMAP
0040
0FC0
0FC0
1180
0000
1F80
3BC0
71C0
70C0
20C0
3FC0
71C0
F1C0
F1C0
7FC0
01F8
ENDCHAR
STARTCHAR adieresis
ENCODING 228
SWIDTH 572 0
DWIDTH 11 0
BBX 13 15 0 0
BITMAP
1980
1D80
0900
0000
1F80
3BC0
71C0
70C0
20C0
3FC0
71C0
F1C0
F1C0
7FC0
01F8
ENDCHAR
STARTCHAR aring
ENCODING 229
SWIDTH 572 0
DWIDTH 11 0
BBX 13 15 0 0
BITMAP
0700
0580
0580
0700
1F80
3BC0
71C0
70C0
20C0
3FC0
71C0
F1C0
F1C0
7FC0
01F8
ENDCHAR
STARTCHAR ae
ENCODING 230
SWIDTH 1022 0
DWIDTH 20 0
BBX 20 11 0 0
BITMAP
1F0000
739FC0
71FCE0
71F870
61F070
3FFFF0
F3F000
E1F810
E1FFE0
7FCF80
03F000
ENDCHAR
STARTCHAR ccedilla
ENCODING 231
SWIDTH 589 0
DWIDTH 12 0
BBX 11 17 1 -7
BITMAP
1F00
3FC0
71C0
E1C0
E1C0
E000
E020
E040
F0C0
7FC0
3F00
0C00
1C00
0E00
0300
1E00
0E00
ENDCHAR
STARTCHAR egrave
ENCODING 232
SWIDTH 593 0
DWIDTH 12 0
BBX 11 17 1 -1
BITMAP
0200
0E00
0600
0700
0300
0000
0000
3F00
7F80
F1C0
E0C0
FFE0
FFE0
E000
E040
7F80
3F00
ENDCHAR
STARTCHAR eacute
ENCODING 233
SWIDTH 593 0
DWIDTH 12 0
BBX 11 17 1 -1
BITMAP
0400
0700
0700
0600
0C00
0000
0000
3F00
7F80
F1C0
E0C0
FFE0
FFE0
E000
E040
7F80
3F00
ENDCHAR
STARTCHAR ecircumflex
ENCODING 234
SWIDTH 593 0
DWIDTH 12 0
BBX 11 16 1 -1
BITMAP
0600
0E00
1F00
3180
0000
0000
3F00
7F80
F1C0
E0C0
FFE0
FFE0
E000
E040
7F80
3F00
ENDCHAR
STARTCHAR edieresis
ENCODING 235
SWIDTH 593 0
DWIDTH 12 0
BBX 11 14 1 -1
BITMAP
1900
1B80
1100
0000
3F00
7F80
F1C0
E0C0
FFE0
FFE0
E000
E040
7F80
3F00
ENDCHAR
STARTCHAR igrave
ENCODING 236
SWIDTH 393 0
DWIDTH 8 0
BBX 10 18 -1 0
BITMAP
0400
1C00
0C00
0E00
0600
0000
0000
C000
3F00
0E00
0E00
0E00
0E00
0E00
0E00
0E00
1F00
7FC0
ENDCHAR
STARTCHAR iacute
ENCODING 237
SWIDTH 393 0
DWIDTH 8 0
BBX 10 18 -1 0
BITMAP
0400
0700
0700
0600
0E00
0000
0000
C000
3F00
0E00
0E00
0E00
0E00
0E00
0E00
0E00
1F00
7FC0
ENDCHAR
STARTCHAR icircumflex
ENCODING 238
SWIDTH 393 0
DWIDTH 8 0
BBX 10 17 -1 0
BITMAP
0600
0E00
1F00
3180
0000
0000
C000
3F00
0E00
0E00
0E00
0E00
0E00
0E00
0E00
1F00
7FC0
ENDCHAR
STARTCHAR idieresis
ENCODING 239
SWIDTH 393 0
DWIDTH 8 0
BBX 10 15 -1 0
BITMAP
1980
1B80
0900
0000
C000
3F00
0E00
0E00
0E00
0E00
0E00
0E00
0E00
1F00
7FC0
ENDCHAR
STARTCHAR eth
ENCODING 240
SWIDTH 672 0
DWIDTH 13 0
BBX 13 18 0 -2
BITMAP
3010
0C78
03E0
03C0
0FC0
1EE0
0C70
0070
0FB8
3FF8
7078
E038
E038
E038
E038
7070
3FE0
0FC0
ENDCHAR
STARTCHAR ntilde
ENCODING 241
SWIDTH 643 0
DWIDTH 13 0
BBX 16 15 -2 1
BITMAP
0008
03F0
03F0
0220
0000
0730
FFFC
0FFC
0F1C
060C
060C
060C
070C
3F9C
00FF
ENDCHAR
STARTCHAR ograve
ENCODING 242
SWIDTH 705 0
DWIDTH 14 0
BBX 14 16 0 0
BITMAP
0100
0700
0380
0180
01C0
0000
0300
3FF0
7878
703C
E01C
E01C
F03C
7038
3CF0
1FE0
ENDCHAR
STARTCHAR oacute
ENCODING 243
SWIDTH 705 0
DWIDTH 14 0
BBX 14 16 0 0
BITMAP
0100
01C0
0380
0380
0300
0000
0300
3FF0
7878
703C
E01C
E01C
F03C
7038
3CF0
1FE0
ENDCHAR
STARTCHAR ocircumflex
ENCODING 244
SWIDTH 705 0
DWIDTH 14 0
BBX 14 15 0 0
BITMAP
0300
0380
07C0
0C60
0000
0300
3FF0
7878
703C
E01C
E01C
F03C
7038
3CF0
1FE0
ENDCHAR
STARTCHAR otilde
ENCODING 245
SWIDTH 705 0
DWIDTH 14 0
BBX 14 15 0 0
BITMAP
0020
0FE0
0FE0
08C0
0000
0300
3FF0
7878
703C
E01C
E01C
F03C
7038
3CF0
1FE0
ENDCHAR
STARTCHAR odieresis
ENCODING 246
SWIDTH 705 0
DWIDTH 14 0
BBX 14 14 0 0
BITMAP
06C0
0EC0
0440
0000
0300
3FF0
7878
703C
E01C
E01C
F03C
7038
3CF0
1FE0
ENDCHAR
STARTCHAR divide
ENCODING 247
SWIDTH 504 0
DWIDTH 10 0
BBX 10 11 0 0
BITMAP
0E00
1E00
0E00
0000
FFC0
FFC0
FFC0
0000
1E00
1E00
1E00
ENDCHAR
STARTCHAR oslash
ENCODING 248
SWIDTH 705 0
DWIDTH 14 0
BBX 14 15 0 -3
BITMAP
0020
0070
0370
3FF0
79F8
71FC
E39C
E39C
F73C
7638
3EF0
1FE0
1C00
3800
0800
ENDCHAR
STARTCHAR ugrave
ENCODING 249
SWIDTH 614 0
DWIDTH 12 0
BBX 16 18 -2 -1
BITMAP
0080
0380
0380
01C0
01C0
0000
0000
FF9C
1C7C
1C1C
1C1C
1C18
1C18
1C18
1C38
0FF8
07DF
0018
ENDCHAR
STARTCHAR uacute
ENCODING 250
SWIDTH 614 0
DWIDTH 12 0
BBX 16 17 -2 -1
BITMAP
0080
00E0
00C0
01C0
0180
0000
FF9C
1C7C
1C1C
1C1C
1C18
1C18
1C18
1C38
0FF8
07DF
0018
ENDCHAR
STARTCHAR ucircumflex
ENCODING 251
SWIDTH 614 0
DWIDTH 12 0
BBX 16 17 -2 -1
BITMAP
0180
01C0
03E0
0630
0000
0000
FF9C
1C7C
1C1C
1C1C
1C18
1C18
1C18
1C38
0FF8
07DF
0018
ENDCHAR
STARTCHAR udieresis
ENCODING 252
SWIDTH 614 0
DWIDTH 12 0
BBX 16 15 -2 -1
BITMAP
0660
0760
0240
0000
FF9C
1C7C
1C1C
1C1C
1C18
1C18
1C18
1C38
0FF8
07DF
0018
ENDCHAR
STARTCHAR yacute
ENCODING 253
SWIDTH 655 0
DWIDTH 13 0
BBX 14 26 -1 -9
BITMAP
0100
01C0
0180
0380
0300
0000
8000
73E4
3E78
3C38
3C38
3C38
3838
3838
3E78
1FF8
0738
0038
0038
0038
1038
3838
3870
3070
1FE0
0F80
ENDCHAR
STARTCHAR thorn
ENCODING 254
SWIDTH 734 0
DWIDTH 15 0
BBX 17 22 -2 -8
BITMAP
FF0000
1F0000
070000
070000
070000
070000
070000
072000
07FE00
070F00
070780
070380
070380
070380
078F00
07FE00
073800
070000
070000
070000
078000
7FF000
ENDCHAR
STARTCHAR ydieresis
ENCODING 255
SWIDTH 655 0
DWIDTH 13 0
BBX 14 24 -1 -9
BITMAP
0CC0
0EC0
0480
0000
8000
73E4
3E78
3C38
3C38
3C38
3838
3838
3E78
1FF8
0738
0038
0038
0038
1038
3838
3870
3070
1FE0
0F80
ENDCHAR
STARTCHAR dotlessi
ENCODING 305
SWIDTH 393 0
DWIDTH 8 0
BBX 10 10 -1 0
BITMAP
FF00
0E00
0E00
0E00
0E00
0E00
0E00
0E00
1F00
7FC0
ENDCHAR
STARTCHAR Lslash
ENCODING 321
SWIDTH 713 0
DWIDTH 14 0
BBX 16 16 -2 0
BITMAP
FFF8
1FC0
0780
0780
07A0
07E0
07F0
0FE1
3F81
1F81
1781
0383
0383
0383
0FFF
7F80
ENDCHAR
STARTCHAR lslash
ENCODING 322
SWIDTH 365 0
DWIDTH 7 0
BBX 11 19 -2 -2
BITMAP
FF00
0F00
0F00
0F00
0F00
0F40
0FC0
0FE0
3F00
7E00
3E00
0600
0600
0600
0600
0600
0600
1F80
6040
ENDCHAR
STARTCHAR OE
ENCODING 338
SWIDTH 1195 0
DWIDTH 24 0
BBX 23 14 0 0
BITMAP
013FFE
00FFF6
000F06
1FCF22
3CFF22
707F22
F03E62
E03FE2
E03FE2
F03E62
707E26
3DEE26
1FCE06
01FFFE
ENDCHAR
STARTCHAR oe
ENCODING 339
SWIDTH 1087 0
DWIDTH 22 0
BBX 22 10 0 -1
BITMAP
1FC3C0
7DEFF0
707C78
E07C38
E03838
E07FFC
707800
79FC08
1FDFF0
0007E0
ENDCHAR
STARTCHAR Scaron
ENCODING 352
SWIDTH 661 0
DWIDTH 13 0
BBX 13 22 0 -2
BITMAP
0840
1CC0
0F80
0700
0300
0000
0008
1F88
7FF8
F070
F010
F810
7F80
3FE0
0FF0
41F8
4078
6078
7870
5FE0
4300
4000
ENDCHAR
STARTCHAR scaron
ENCODING 353
SWIDTH 533 0
DWIDTH 11 0
BBX 11 20 0 -1
BITMAP
1080
3980
1F00
0E00
0600
0000
0000
1C40
7F40
61C0
E0C0
F840
7F40
3FC0
4FC0
41E0
60E0
7FC0
9F80
8000
ENDCHAR
STARTCHAR Ydieresis
ENCODING 376
SWIDTH 848 0
DWIDTH 17 0
BBX 21 18 -3 -1
BITMAP
006600
007600
002400
000000
FFE000
1F87F8
03C1E0
01C180
01E300
00F600
007C00
003800
003800
003800
003800
003C00
003C00
03FFE0
ENDCHAR
STARTCHAR Zcaron
ENCODING 381
SWIDTH 685 0
DWIDTH 14 0
BBX 14 19 0 0
BITMAP
0840
0CE0
07C0
0380
0300
0000
0000
FFFC
7FF8
60F0
61E0
43E0
47C4
2784
0F08
1F08
3E18
7FF8
FFF8
ENDCHAR
STARTCHAR zcaron
ENCODING 382
SWIDTH 549 0
DWIDTH 11 0
BBX 12 18 0 0
BITMAP
1080
39C0
0F00
0F00
0600
0000
0000
0010
FFE0
61C0
63C0
4780
4F20
4E20
1E40
3C60
7FE0
FFE0
ENDCHAR
STARTCHAR circumflex
ENCODING 710
SWIDTH 714 0
DWIDTH 14 0
BBX 7 4 4 14
BITMAP
18
3C
7E
E6
ENDCHAR
STARTCHAR caron
ENCODING 711
SWIDTH 714 0
DWIDTH 14 0
BBX 7 5 4 14
BITMAP
42
E6
7C
3C
18
ENDCHAR
STARTCHAR breve
ENCODING 728
SWIDTH 715 0
DWIDTH 14 0
BBX 6 4 5 15
BITMAP
84
CC
F8
78
ENDCHAR
STARTCHAR dotaccent
ENCODING 729
SWIDTH 708 0
DWIDTH 14 0
BBX 2 3 6 16
BITMAP
C0
C0
40
ENDCHAR
STARTCHAR ring
ENCODING 730
SWIDTH 704 0
DWIDTH 14 0
BBX 4 5 6 14
BITMAP
40
F0
90
F0
60
ENDCHAR
STARTCHAR ogonek
ENCODING 731
SWIDTH 988 0
DWIDTH 20 0
BBX 7 5 6 -2
BITMAP
60
40
E0
F6
7E
ENDCHAR
STARTCHAR tilde
ENCODING 732
SWIDTH 707 0
DWIDTH 14 0
BBX 6 4 5 14
BITMAP
04
FC
FC
98
ENDCHAR
STARTCHAR hungarumlaut
ENCODING 733
SWIDTH 671 0
DWIDTH 13 0
BBX 7 5 4 15
BITMAP
48
7E
6E
FC
D8
ENDCHAR
STARTCHAR endash
ENCODING 8211
SWIDTH 576 0
DWIDTH 12 0
BBX 9 3 1 6
BITMAP
FF80
FF80
FF80
ENDCHAR
STARTCHAR emdash
ENCODING 8212
SWIDTH 993 0
DWIDTH 20 0
BBX 18 3 1 6
BITMAP
FFFFC0
FFFFC0
FFFFC0
ENDCHAR
STARTCHAR quoteleft
ENCODING 8216
SWIDTH 261 0
DWIDTH 5 0
BBX 5 6 0 8
BITMAP
38
38
70
F0
70
10
ENDCHAR
STARTCHAR quoteright
ENCODING 8217
SWIDTH 301 0
DWIDTH 6 0
BBX 4 7 1 8
BITMAP
40
70
70
F0
E0
C0
40
ENDCHAR
STARTCHAR quotesinglbase
ENCODING 8218
SWIDTH 332 0
DWIDTH 7 0
BBX 4 7 1 -2
BITMAP
40
70
70
F0
E0
C0
40
ENDCHAR
STARTCHAR quotedblleft
ENCODING 8220
SWIDTH 477 0
DWIDTH 10 0
BBX 9 6 0 8
BITMAP
3980
3B80
7780
F700
7700
1100
ENDCHAR
STARTCHAR quotedblright
ENCODING 8221
SWIDTH 477 0
DWIDTH 10 0
BBX 9 7 0 8
BITMAP
4200
3300
7B80
7700
7700
E600
2200
ENDCHAR
STARTCHAR quotedblbase
ENCODING 8222
SWIDTH 477 0
DWIDTH 10 0
BBX 9 7 0 -2
BITMAP
4200
3300
7B80
7700
7700
E600
2200
ENDCHAR
STARTCHAR dagger
ENCODING 8224
SWIDTH 487 0
DWIDTH 10 0
BBX 9 23 0 -6
BITMAP
1E00
1E00
1E00
1E00
0E00
7F80
FF80
FF80
0E00
0E00
0E00
0C00
0C00
0C00
0C00
0C00
0C00
0C00
0C00
0C00
0C00
0C00
0C00
ENDCHAR
STARTCHAR daggerdbl
ENCODING 8225
SWIDTH 497 0
DWIDTH 10 0
BBX 9 23 0 -6
BITMAP
1E00
1E00
1E00
1E00
0E00
7F80
FF80
FF80
0E00
0E00
FF80
FF80
7F80
0C00
0C00
0C00
0C00
0C00
0C00
0C00
0C00
0C00
0C00
ENDCHAR
STARTCHAR bullet
ENCODING 8226
SWIDTH 275 0
DWIDTH 6 0
BBX 6 5 0 5
BITMAP
78
F8
FC
F8
70
ENDCHAR
STARTCHAR ellipsis
ENCODING 8230
SWIDTH 787 0
DWIDTH 16 0
BBX 16 4 0 -2
BITMAP
6184
F3CE
F3DF
618E
ENDCHAR
STARTCHAR perthousand
ENCODING 8240
SWIDTH 888 0
DWIDTH 18 0
BBX 19 17 0 -1
BITMAP
008000
30E000
FCE000
CDC000
CDC000
FD8000
338000
038000
070000
070000
060000
0EFFC0
0CDEC0
1D9EE0
1CDEC0
18F7C0
380000
ENDCHAR
STARTCHAR guilsinglleft
ENCODING 8249
SWIDTH 234 0
DWIDTH 5 0
BBX 4 11 0 -1
BITMAP
10
10
30
70
60
E0
60
30
30
10
10
ENDCHAR
STARTCHAR guilsinglright
ENCODING 8250
SWIDTH 223 0
DWIDTH 4 0
BBX 4 11 0 -1
BITMAP
80
C0
60
60
30
30
70
60
C0
C0
80
ENDCHAR
STARTCHAR fraction
ENCODING 8260
SWIDTH 600 0
DWIDTH 12 0
BBX 14 19 -1 -2
BITMAP
0020
0038
007C
0078
00F0
00F0
01E0
03C0
03C0
0780
0700
0F00
0E00
1E00
3C00
3800
7800
F000
7000
ENDCHAR
STARTCHAR Euro
ENCODING 8364
SWIDTH 590 0
DWIDTH 12 0
BBX 13 12 -1 1
BITMAP
03E0
0FF0
1C38
1C38
FE30
FF80
3800
FF88
1FC8
1E10
0FF0
07C0
ENDCHAR
STARTCHAR trademark
ENCODING 8482
SWIDTH 624 0
DWIDTH 12 0
BBX 13 9 0 6
BITMAP
2000
2000
E000
5000
5FF0
46D0
5490
5EB8
61C0
ENDCHAR
STARTCHAR minus
ENCODING 8722
SWIDTH 549 0
DWIDTH 11 0
BBX 11 4 0 5
BITMAP
F800
FFE0
FFE0
FFC0
ENDCHAR
STARTCHAR fi
ENCODING 64257
SWIDTH 757 0
DWIDTH 15 0
BBX 17 27 -1 -8
BITMAP
03F000
07FC00
061C00
0E1E00
0E1E00
0E1E00
0E1C00
0E0000
0E0000
7FFE00
7FFE00
0E1E00
0F1E00
070C00
070C00
070C00
070C00
071E00
077F80
070000
070000
030000
E30000
E70000
E70000
7E0000
3C0000
ENDCHAR
STARTCHAR fl
ENCODING 64258
SWIDTH 776 0
DWIDTH 16 0
BBX 18 27 -1 -8
BITMAP
03F000
073800
061C00
0E1E00
0E1E00
0E0E00
0E0E00
0E0E00
0E0E00
7FCE00
7FCE00
0E0E00
0F0E00
070E00
070E00
070E00
070E00
070E00
070E00
073F80
074040
030000
E30000
E70000
E70000
7E0000
3C0000
ENDCHAR
STARTCHAR .notdef
ENCODING -1
SWIDTH 320 0
DWIDTH 6 0
BBX 1 1 0 0
BITMAP
00
ENDCHAR
ENDFONT
